<?xml version="1.0" encoding="utf-8"?>
<!-- Generator: Adobe Illustrator 19.2.1, SVG Export Plug-In . SVG Version: 6.00 Build 0)  -->
<svg version="1.1" id="Capa_1" xmlns="http://www.w3.org/2000/svg" xmlns:xlink="http://www.w3.org/1999/xlink" x="0px" y="0px"
	 viewBox="0 0 289 55.5" style="enable-background:new 0 0 289 55.5;" xml:space="preserve">
<style type="text/css">
	.st0{fill:#05AB90;}
</style>
<g>
	<g>
		<g>
			<g>
				<path class="st0" d="M13.9,29.6c0,3.1-2.5,5.1-5.6,5.1H1V17.4h6.8c3,0,5.5,2,5.5,5c0,1.4-0.6,2.6-1.5,3.4
					C13.1,26.5,13.9,27.9,13.9,29.6z M5,21.1v3.1h2.8c0.9,0,1.5-0.6,1.5-1.5s-0.6-1.5-1.5-1.5L5,21.1L5,21.1z M10,29.3
					c0-1-0.6-1.7-1.6-1.7H5.1v3.3h3.3C9.3,31,10,30.3,10,29.3z"/>
				<path class="st0" d="M28.5,22.3v12.4h-3.7v-1.2c-0.8,0.9-2,1.5-3.7,1.5c-3.2,0-5.9-2.8-5.9-6.5s2.7-6.5,5.9-6.5
					c1.7,0,2.9,0.6,3.7,1.5v-1.2H28.5z M24.8,28.5c0-1.9-1.2-3-2.9-3s-2.9,1.2-2.9,3c0,1.9,1.2,3,2.9,3
					C23.5,31.5,24.8,30.4,24.8,28.5z"/>
				<path class="st0" d="M42.9,27.1v7.6h-3.7v-7.1c0-1.5-1-2.3-2.2-2.3c-1.4,0-2.3,0.8-2.3,2.6v6.8H31V22.3h3.7v1.2
					c0.7-0.9,1.9-1.5,3.5-1.5C40.7,22,42.9,23.8,42.9,27.1z"/>
				<path class="st0" d="M44.5,28.5c0-3.7,2.8-6.5,6.6-6.5c2.4,0,4.5,1.3,5.6,3.2l-3.2,1.9c-0.4-0.9-1.3-1.4-2.4-1.4
					c-1.6,0-2.8,1.2-2.8,2.9s1.2,2.9,2.8,2.9c1.1,0,2-0.5,2.4-1.4l3.2,1.9c-1.1,1.9-3.2,3.2-5.6,3.2C47.3,35.1,44.5,32.2,44.5,28.5z
					"/>
				<path class="st0" d="M57.1,28.5c0-3.7,2.9-6.5,6.6-6.5s6.6,2.8,6.6,6.5S67.4,35,63.7,35S57.1,32.2,57.1,28.5z M66.5,28.5
					c0-1.8-1.2-2.9-2.8-2.9c-1.6,0-2.8,1.2-2.8,2.9c0,1.8,1.2,2.9,2.8,2.9C65.2,31.4,66.5,30.3,66.5,28.5z"/>
				<path class="st0" d="M90.7,17.4v17.3H87v-1.2c-0.8,0.9-2,1.5-3.7,1.5c-3.2,0-5.9-2.8-5.9-6.5s2.7-6.5,5.9-6.5
					c1.7,0,2.9,0.6,3.7,1.5v-6.1H90.7z M87,28.5c0-1.9-1.2-3-2.9-3c-1.7,0-2.9,1.2-2.9,3c0,1.9,1.2,3,2.9,3
					C85.8,31.5,87,30.4,87,28.5z"/>
				<path class="st0" d="M99.5,31.7c1,0,1.9-0.4,2.4-0.9l3,1.7c-1.2,1.7-3,2.6-5.4,2.6c-4.2,0-6.9-2.8-6.9-6.5s2.7-6.5,6.6-6.5
					c3.6,0,6.3,2.8,6.3,6.5c0,0.5,0,1-0.1,1.5h-8.8C97,31.3,98.1,31.7,99.5,31.7z M101.8,27.2c-0.4-1.4-1.5-2-2.6-2
					c-1.4,0-2.4,0.7-2.7,2H101.8z"/>
				<path class="st0" d="M118,25.9v4.4c0,1.1,0.9,1.2,2.6,1.1v3.4c-4.9,0.5-6.3-1-6.3-4.4V26h-2v-3.6h2V20l3.7-1.1v3.5h2.6V26
					L118,25.9L118,25.9z"/>
				<path class="st0" d="M122,19c0-1.2,1-2.2,2.2-2.2s2.2,1,2.2,2.2s-1,2.2-2.2,2.2S122,20.2,122,19z M122.4,22.3h3.7v12.4h-3.7
					V22.3z"/>
				<path class="st0" d="M134.9,31.7c1,0,1.9-0.4,2.4-0.9l3,1.7c-1.2,1.7-3,2.6-5.4,2.6c-4.2,0-6.9-2.8-6.9-6.5s2.7-6.5,6.6-6.5
					c3.6,0,6.3,2.8,6.3,6.5c0,0.5,0,1-0.1,1.5H132C132.4,31.3,133.5,31.7,134.9,31.7z M137.1,27.2c-0.4-1.4-1.5-2-2.6-2
					c-1.4,0-2.4,0.7-2.7,2H137.1z"/>
				<path class="st0" d="M161.3,27.1v7.6h-3.7v-7.3c0-1.2-0.6-2-1.8-2s-1.9,0.9-1.9,2.3v7h-3.7v-7.3c0-1.2-0.6-2-1.8-2
					s-1.9,0.9-1.9,2.3v7h-3.7V22.3h3.7v1.2c0.6-0.8,1.7-1.5,3.3-1.5c1.5,0,2.6,0.6,3.2,1.6c0.7-1,1.8-1.6,3.6-1.6
					C159.4,22,161.3,24,161.3,27.1z"/>
				<path class="st0" d="M176.9,28.5c0,3.7-2.7,6.5-5.9,6.5c-1.7,0-2.9-0.6-3.7-1.5v6.1h-3.7V22.3h3.7v1.2c0.8-0.9,2-1.5,3.7-1.5
					C174.2,22,176.9,24.8,176.9,28.5z M173.2,28.5c0-1.9-1.2-3-2.9-3s-2.9,1.2-2.9,3c0,1.9,1.2,3,2.9,3
					C171.9,31.5,173.2,30.4,173.2,28.5z"/>
				<path class="st0" d="M178.1,28.5c0-3.7,2.9-6.5,6.6-6.5c3.6,0,6.6,2.8,6.6,6.5s-2.9,6.5-6.6,6.5C181,35.1,178.1,32.2,178.1,28.5
					z M187.5,28.5c0-1.8-1.2-2.9-2.8-2.9s-2.8,1.2-2.8,2.9c0,1.8,1.2,2.9,2.8,2.9S187.5,30.3,187.5,28.5z"/>
				<path class="st0" d="M198.8,28.5c0-3.7,2.8-6.5,6.5-6.5c2.4,0,4.5,1.2,5.4,3.2l-1,0.6c-0.7-1.6-2.4-2.6-4.4-2.6
					c-3,0-5.3,2.3-5.3,5.3c0,2.9,2.3,5.3,5.3,5.3c2,0,3.6-1,4.5-2.6l1,0.6c-1,1.9-3.1,3.1-5.5,3.1C201.5,35,198.8,32.2,198.8,28.5z"
					/>
				<path class="st0" d="M218.6,22.2v1.2c-2.1,0-4.1,1.3-4.1,4.5v6.9h-1.2V22.3h1.2v2.4C215.3,22.8,216.9,22.2,218.6,22.2z"/>
				<path class="st0" d="M231.8,28.6c0,0.2,0,0.4,0,0.6h-11.2c0.3,2.8,2.4,4.6,5.3,4.6c2,0,3.6-0.9,4.3-2.3l1.1,0.6
					c-1,1.7-2.9,2.8-5.4,2.8c-3.8,0-6.5-2.7-6.5-6.5c0-3.6,2.6-6.5,6.4-6.5C229.5,22.1,231.8,25.2,231.8,28.6z M220.6,27.9h10
					c-0.3-3-2.4-4.7-4.8-4.7C222.9,23.2,220.8,25.2,220.6,27.9z"/>
				<path class="st0" d="M246.6,22.3v12.4h-1.3v-2.8c-1,1.9-2.9,3.1-5.3,3.1c-3.5,0-6.4-2.8-6.4-6.5s2.9-6.5,6.4-6.5
					c2.4,0,4.3,1.2,5.3,3.1v-2.8C245.3,22.3,246.6,22.3,246.6,22.3z M245.4,28.5c0-2.9-2.3-5.3-5.2-5.3c-2.9,0-5.2,2.3-5.2,5.3
					c0,2.9,2.3,5.3,5.2,5.3S245.4,31.5,245.4,28.5z"/>
				<path class="st0" d="M252.9,23.5v8c0,2.2,1.2,2.2,3.7,2v1.1c-3.2,0.5-5-0.3-5-3.1v-8h-2.7v-1.2h2.7v-3.1l1.3-0.4v3.5h3.7v1.2
					H252.9z"/>
				<path class="st0" d="M258.9,18.3c0-0.5,0.4-1,1-1c0.5,0,1,0.4,1,1c0,0.5-0.4,1-1,1C259.3,19.3,258.9,18.9,258.9,18.3z
					 M259.3,22.3h1.2v12.4h-1.2V22.3z"/>
				<path class="st0" d="M274.5,22.3l-5.2,12.4h-1.5l-5.3-12.4h1.3l4.7,11.1l4.7-11.1C273.2,22.3,274.5,22.3,274.5,22.3z"/>
				<path class="st0" d="M275.1,28.5c0-3.7,2.9-6.5,6.5-6.5s6.5,2.8,6.5,6.5s-2.9,6.5-6.5,6.5S275.1,32.2,275.1,28.5z M286.9,28.5
					c0-2.9-2.3-5.3-5.2-5.3c-2.9,0-5.2,2.3-5.2,5.3c0,2.9,2.3,5.3,5.2,5.3S286.9,31.5,286.9,28.5z"/>
			</g>
		</g>
	</g>
</g>
</svg>
