<svg xmlns="http://www.w3.org/2000/svg" viewBox="9673.527 3160.73 109.248 16.674">
  <defs>
    <style>
      .cls-1 {
        fill: #00bd9c;
      }
    </style>
  </defs>
  <g id="Group_1550" data-name="Group 1550" transform="translate(9673.527 3160.73)">
    <g id="Group_1549" data-name="Group 1549">
      <g id="Group_1544" data-name="Group 1544">
        <path id="Path_218" data-name="Path 218" class="cls-1" d="M172.247,108.7l2.1,6.378h6.743l-5.467,4.009,2.1,6.287-5.467-3.918-5.376,3.918,2.1-6.287-5.467-4.009h6.743Z" transform="translate(-163.5 -108.7)"/>
      </g>
      <g id="Group_1545" data-name="Group 1545" transform="translate(22.961)">
        <path id="Path_219" data-name="Path 219" class="cls-1" d="M197.447,108.7l2.1,6.378h6.651l-5.376,4.009,2,6.287-5.376-3.918-5.376,3.918,2-6.287-5.376-4.009h6.651Z" transform="translate(-188.7 -108.7)"/>
      </g>
      <g id="Group_1546" data-name="Group 1546" transform="translate(45.831)">
        <path id="Path_220" data-name="Path 220" class="cls-1" d="M222.638,108.7l2,6.378h6.743l-5.467,4.009,2.1,6.287-5.376-3.918-5.467,3.918,2.1-6.287-5.467-4.009h6.743Z" transform="translate(-213.8 -108.7)"/>
      </g>
      <g id="Group_1547" data-name="Group 1547" transform="translate(68.792)">
        <path id="Path_221" data-name="Path 221" class="cls-1" d="M247.747,108.7l2.1,6.378h6.651l-5.376,4.009,2.1,6.287-5.467-3.918-5.376,3.918,2-6.287L239,115.078h6.651Z" transform="translate(-239 -108.7)"/>
      </g>
      <g id="Group_1548" data-name="Group 1548" transform="translate(91.662)">
        <path id="Path_222" data-name="Path 222" class="cls-1" d="M272.938,108.7l2,6.378h6.742l-5.467,4.009,2.1,6.287-5.376-3.918-5.467,3.918,2.1-6.287-5.467-4.009h6.743Z" transform="translate(-264.1 -108.7)"/>
      </g>
    </g>
  </g>
</svg>
